<?xml version="1.0" encoding="utf-8"?>
<!-- Generator: Adobe Illustrator 22.1.0, SVG Export Plug-In . SVG Version: 6.00 Build 0)  -->
<svg version="1.1" id="Capa_1" xmlns="http://www.w3.org/2000/svg" xmlns:xlink="http://www.w3.org/1999/xlink" x="0px" y="0px"
	 viewBox="0 0 209 211" style="enable-background:new 0 0 209 211;" xml:space="preserve">
<style type="text/css">
	.st0{fill:none;stroke:#F98A3E;stroke-miterlimit:10;}
	.st1{fill:none;stroke:#80FF01;stroke-miterlimit:10;}
</style>
<path class="st0" d="M22.7,99.1c0,0-10.4,1.3-8.7-6.2s8.7-11,13.6-8.3s5.6,9.2,2.1,11.7c-3.5,2.5-5,1.9-5,1.9"/>
<path class="st1" d="M41.5,64.9c0,0-4.1-6.6,2-5c6.1,1.6,0.6-10.1-7.2-6.2s-7.8,6.9-3.6,8s-0.1,3,1.5,4.6s3.5-2.5,3.8,0.1
	c0.3,2.5,0,2.5,0,2.5"/>
<path class="st1" d="M56.1,78c0,0-1.9-4.1-8.5-0.2c-6.6,3.9-6.3,9.5-1.7,7s7-4.4,7.7-2.4"/>
<path class="st1" d="M34.6,105.7c-0.3-4,3.8-10.7,13.4-8.7c2.7,0.6,3.8,3.6,1.4,6.6"/>
<path class="st1" d="M12.7,74.6c0,0,1.2-3.5-0.7-3.5s-5.5,5.5-5.8,1.4c-0.3-4,2.5-12.9,12.1-10.9c2.7,0.6,3.8,3.6,1.4,6.6
	c-2.4,3,3.8,5.1-2.8,6.5"/>
<path class="st0" d="M65.3,103.9c0,0-10.3-4.2-7.8-13.3s19.1-11.3,22-2.6c2.9,8.6,1.7,13.7-10.3,16"/>
<path class="st1" d="M83.1,95.6c0,0,9.3-3.9,7.7,1.1s-5.8,3.4-6.2,4.4c-0.4,1-2.7,0-2.7,0"/>
<path class="st1" d="M18.5,45.8c0,0,9.3-3.9,7.7,1.1s-5.8,3.4-6.2,4.4c-0.4,1-2.7,0-2.7,0"/>
<path class="st1" d="M40.6,36.4c-3.4-0.9-7.5-1.2-8.5,1.8c-1.9,5.4,9,0.1,11.5,5.1"/>
<path class="st1" d="M69.5,64.3c-3.8,0.3-1.1,6.2-6.7,2.5"/>
<path class="st1" d="M60,63.6c0,0,3.4-1.5,2.1-3c-1.3-1.4-7.7-0.2-5-3.2c0.8-0.9,2.1-1.9,3.7-2.6"/>
<path class="st0" d="M153.2,101.6c-3.2,3.4-7.8,5.2-11.6,3c-1.6-0.9-3-1.9-4.1-2.8"/>
<path class="st1" d="M66,144.3c0.5,3.8,6.3,0.9,2.7,6.6"/>
<path class="st1" d="M158.8,182.8c0,0,11.6,5.8,13.7,0.5s-9-0.4-11.3-5.5"/>
<path class="st0" d="M150.3,178.6c0,0,7.9,6.9,1.1,10.7s-13.9,0.7-15.3-4.7c-1.3-5.4,3.2-10.3,7.4-9.3c4.2,1,4.8,2.5,4.8,2.5"/>
<path class="st1" d="M117.6,179.7c0,0-2.3,7.5-5.1,1.8s-7.9,6.2,0.1,9.5s10.4,1.3,8.4-2.6c-2-3.9,2.3-2,2.5-4.1s-4.2-1-2.5-2.9
	s1.9-1.6,1.9-1.6"/>
<path class="st1" d="M112.4,167.6c0,0-1.8,4.1,5.5,6.5c7.3,2.4,11.3-1.5,6.4-3.4s-7.9-2.3-6.9-4.2"/>
<path class="st1" d="M145.5,156.7c0,0-3.4,1.4-2.2,2.9s7.7,0.5,4.9,3.4c-2.8,2.9-11.3,6.6-16.2-1.9c-1.4-2.4,0.2-5.2,4-5.4
	c3.8-0.2,1.4-6.2,6.7-2.2"/>
<path class="st1" d="M139.4,193.6c0,0-3.4,1.4-2.2,2.9c1.2,1.5,7.7,0.5,4.9,3.4c-2.8,2.9-11.3,6.6-16.2-1.9c-1.4-2.4,0.2-5.2,4-5.4
	c3.8-0.2,1.4-6.2,6.7-2.2"/>
<path class="st0" d="M132.3,139.7c0,0,3.6,10.5-4.8,14.7c-8.4,4.1-21-6.9-16.5-14.8c4.6-7.9,9.1-10.3,18.8-2.8"/>
<path class="st1" d="M106.5,128.5c2.7,0.2,3.8,2.6,4.6,2.3c1-0.4,1.7,2.1,1.7,2.1"/>
<path class="st1" d="M116.6,206.7c0,0-9.1-4.4-4.2-6.5c4.8-2.1,6.4,2.1,7.4,1.8s1.7,2.1,1.7,2.1"/>
<path class="st0" d="M170.2,173.6c0,0-10.2,4.4-15-3.7c-3-5.2,0.1-12.7,4.9-16.2"/>
<path class="st1" d="M133.4,102.1c-1.2,2.1-4.4,7.2-6.1,3.3c-0.5-1.2-0.6-2.2-0.5-3.1"/>
<path class="st1" d="M184.6,159.1c0,0,7.1,10.9,2,13.5c-5.1,2.7-1.4-8.9-6.8-10.6"/>
<path class="st0" d="M179.6,151.2c0,0,7.8,7.1,10.7-0.1s-0.8-13.9-6.4-14.6c-5.6-0.7-9.9,4.3-8.4,8.3s3,4.5,3,4.5"/>
<path class="st1" d="M177,118.6c0,0,7.2-3.1,1.2-5.3c-6-2.2,5.3-8.6,9.4-0.9s2.4,10.2-1.6,8.6s-1.7,2.5-3.8,2.9
	c-2.1,0.4-1.5-4-3.2-2.1c-1.7,1.9-1.4,2.1-1.4,2.1"/>
<path class="st1" d="M164.4,114.7c0,0,3.9-2.3,7,4.7c3.2,7-0.3,11.4-2.7,6.7s-3.2-7.6-5-6.4"/>
<path class="st1" d="M157.3,148.8c0,0,1-3.6,2.6-2.5c1.6,1.1,1.4,7.6,3.9,4.5s5.3-12-3.7-15.9c-2.5-1.1-5.2,0.8-4.9,4.6
	c0.2,3.8-6,2-1.4,6.9"/>
<path class="st1" d="M195,138c0,0,1-3.6,2.6-2.5c1.6,1.1,1.4,7.6,3.9,4.5s5.3-12-3.7-15.9c-2.5-1.1-5.2,0.8-4.9,4.6
	c0.2,3.8-6,2-1.4,6.9"/>
<path class="st0" d="M137.7,133.2c0,0,10.9,2.5,14-6.4s-9.1-20.2-16.5-14.8c-7.3,5.4-9.2,10.2-0.7,19"/>
<path class="st1" d="M132.1,113.6c0,0-5.4-8.5-6.9-3.5c-1.5,5,2.8,6.2,2.6,7.2c-0.2,1.1,2.2,1.5,2.2,1.5"/>
<path class="st1" d="M204.8,112.2c0,0-5.4-8.5-6.9-3.5s2.8,6.2,2.6,7.2c-0.2,1.1,2.2,1.5,2.2,1.5"/>
<path class="st0" d="M160.1,153.6c2.6-1.9,5.8-2.7,8.7-1.3c8.2,4,10.9,8.4,4.2,18.5"/>
<path class="st1" d="M181.3,50.6c0,0,5.9-11.5,0.6-13.7s-0.5,9-5.6,11.3"/>
<path class="st0" d="M177.1,59c0,0,7-7.8,10.7-1s0.6,13.9-4.8,15.2c-5.5,1.3-10.3-3.3-9.2-7.4s2.5-4.8,2.5-4.8"/>
<path class="st1" d="M178,91.7c0,0,7.5,2.3,1.8,5.1c-5.7,2.8,6.2,8,9.5,0c3.3-8,1.4-10.4-2.5-8.4s-1.9-2.3-4.1-2.5
	c-2.2-0.2-1,4.2-2.9,2.5s-1.6-1.9-1.6-1.9"/>
<path class="st1" d="M165.8,96.9c0,0,4.1,1.9,6.5-5.4c2.4-7.3-1.4-11.3-3.4-6.4c-1.9,4.9-2.4,7.9-4.3,6.9"/>
<path class="st1" d="M155.2,63.7c0,0,1.4,3.5,2.9,2.2c1.5-1.2,0.6-7.7,3.5-4.9c2.9,2.8,6.5,11.4-2,16.2c-2.4,1.3-5.2-0.2-5.4-4
	s-6.2-1.4-2.1-6.8"/>
<path class="st1" d="M193.8,70.5c0,0,1.4,3.5,2.9,2.2c1.5-1.2,0.6-7.7,3.5-4.9c2.9,2.8,6.5,11.4-2,16.2c-2.4,1.3-5.2-0.2-5.4-4
	c-0.2-3.8-6.2-1.4-2.1-6.8"/>
<path class="st1" d="M126.8,102.4c0.3-2.5,2.6-3.6,2.3-4.4c-0.4-1,2.1-1.7,2.1-1.7"/>
<path class="st1" d="M133.9,101.3c0,0-0.2,0.3-0.5,0.8"/>
<path class="st1" d="M206.2,95.1c0,0-4.5,9-6.5,4.2s2.2-6.4,1.8-7.4s2.1-1.7,2.1-1.7"/>
<path class="st0" d="M137.6,101.8c-4.4-3.8-4.6-8.3,1.4-16"/>
<path class="st0" d="M141.9,83.3c0,0,10.6-3.6,14.6,4.9c2.1,4.4,0.2,9.8-3.3,13.4"/>
<path class="st1" d="M65.7,153.9c0,0-1.6-3.3-3-2c-1.4,1.3,0,7.7-3.1,5.1c-0.8-0.7-1.6-1.7-2.3-2.9"/>
<path class="st1" d="M45.8,38.1c0,0-2.4-1.1-5.2-1.8"/>
<path class="st0" d="M54.4,41.9c0,0-8.1-6.6-1.5-10.6s13.9-1.3,15.4,4.1c1.5,5.4-2.8,10.4-7,9.6s-4.9-2.3-4.9-2.3"/>
<path class="st1" d="M87,39.6c0,0,2-7.6,5-2s7.7-6.5-0.5-9.5s-10.4-0.9-8.3,2.9s-2.2,2-2.3,4.2s4.2,0.8,2.6,2.8
	c-1.6,2-1.9,1.7-1.9,1.7"/>
<path class="st1" d="M92.7,51.5c0,0,1.7-4.1-5.7-6.2s-11.2,2-6.2,3.6c5,1.7,8,2,7.1,4"/>
<path class="st1" d="M60.8,54.8c3.7-1.7,8.9-1.9,12.5,3.9c1.4,2.3,0,5.2-3.8,5.6"/>
<path class="st1" d="M65,24.8c0,0,3.4-1.5,2.1-3c-1.3-1.4-7.7-0.2-5-3.2s11.1-7,16.2,1.3c1.4,2.3,0,5.2-3.8,5.6
	c-3.8,0.3-1.1,6.2-6.7,2.5"/>
<path class="st0" d="M80.2,76c0,0-4-10.4,4.2-14.8s21.3,6,17.1,14.1s-8.7,10.6-18.7,3.6"/>
<path class="st1" d="M98.5,83.2c0,0,9.2,4.1,4.5,6.4s-6.5-1.9-7.5-1.5c-1,0.4-1.8-2-1.8-2"/>
<path class="st1" d="M92.1,14.2c0,0,9.2,4.1,4.5,6.4s-6.5-1.9-7.5-1.5s-1.8-2-1.8-2"/>
<path class="st1" d="M112.2,36.9c0,0-4.6-12.1-9.7-9.6c-5.1,2.5,6.3,6.4,4.6,11.7"/>
<path class="st0" d="M121.7,21.7c0,0-1.1-10.4,6.4-8.6s10.8,8.9,8.1,13.8s-9.3,5.4-11.7,1.9c-2.4-3.6-1.8-5.1-1.8-5.1"/>
<path class="st1" d="M138.5,51c0,0,6.7-4,5,2.1c-1.7,6.1,10.1,0.8,6.3-7.1c-3.7-7.8-6.8-8-7.9-3.8s-3-0.1-4.6,1.4
	c-1.6,1.5,2.4,3.6-0.1,3.8c-2.5,0.3-2.5-0.1-2.5-0.1"/>
<path class="st1" d="M127.2,47.5c0,0,4.1-1.8,0.3-8.5c-3.8-6.7-9.4-6.5-7-1.8s4.3,7.1,2.2,7.8"/>
<path class="st1" d="M100.4,50.1c0,0,3.5,1.3,3.6-0.6s-5.3-5.6-1.3-5.8s12.8,2.8,10.7,12.3c-0.6,2.7-3.7,3.7-6.6,1.3
	c-2.9-2.4-5.2,3.7-6.5-2.9"/>
<path class="st1" d="M141.3,17c0,0,3.5,1.3,3.6-0.6s-5.3-5.6-1.3-5.8c4-0.2,12.8,2.8,10.7,12.3c-0.6,2.7-3.7,3.7-6.6,1.3
	s-5.2,3.7-6.5-2.9"/>
<path class="st0" d="M116.1,64.1c0,0,4.4-10.2,13.4-7.6c9,2.6,10.9,19.3,2.2,22C123,81.3,118,80,116,68"/>
<path class="st1" d="M160,34.3c0,0,3.7,9.4-1.3,7.7c-5-1.7-3.3-5.9-4.3-6.3c-1-0.4,0.1-2.7,0.1-2.7"/>
<path class="st1" d="M120.1,83c0,0,3.7,9.4-1.3,7.7c-5-1.7-3.3-5.9-4.3-6.3s0.1-2.7,0.1-2.7"/>
<path class="st1" d="M49.6,103.6c-2.4,3,3.7,5.1-2.8,6.5"/>
<path class="st1" d="M14.2,102.6c0,0-12,4.8-9.5,9.9s6.3-6.4,11.7-4.8"/>
<path class="st0" d="M13.3,205.5c0,0-10.3-4.3-7.8-13.3s19.1-11.2,22-2.5c2.9,8.6,1.6,13.7-10.4,15.9"/>
<path class="st1" d="M42.5,110c0,0,1.2-3.5-0.7-3.6c-1.9,0-5.5,5.4-5.8,1.4"/>
<path class="st1" d="M34.9,161.9c0,0-5,11.9,0.4,13.7c5.4,1.7-0.2-9,4.8-11.7"/>
<path class="st0" d="M44.1,160.2c0,0-6.4,8.3-10.6,1.8c-4.2-6.5-1.7-13.9,3.7-15.5c5.3-1.7,10.5,2.5,9.7,6.7
	c-0.7,4.2-2.2,4.9-2.2,4.9"/>
<path class="st1" d="M40.8,127.7c0,0-7.6-1.8-2.1-5c5.5-3.2-6.8-7.5-9.5,0.7s-0.6,10.4,3.1,8.2c3.7-2.2,2.1,2.2,4.3,2.2
	c2.2,0,0.7-4.2,2.8-2.7c2,1.5,1.8,1.8,1.8,1.8"/>
<path class="st1" d="M52.6,121.6c0,0-4.2-1.6-6.1,5.9c-1.9,7.5,2.3,11.2,3.8,6.1c1.6-5,1.8-8.1,3.8-7.2"/>
<path class="st1" d="M26.6,150c0,0-1.6-3.3-3-2s0,7.7-3.1,5.1c-3.1-2.6-7.4-10.9,0.8-16.3c2.3-1.5,5.2-0.1,5.7,3.6
	c0.5,3.8,6.3,0.9,2.6,6.6"/>
<path class="st1" d="M84.1,114.9c0,0,3.8-9.3,6.2-4.6c2.4,4.7-1.7,6.6-1.3,7.5s-1.9,1.9-1.9,1.9"/>
<path class="st1" d="M12.4,126.3c0,0,3.8-9.3,6.2-4.6s-1.7,6.6-1.3,7.5c0.4,1-1.9,1.9-1.9,1.9"/>
<path class="st1" d="M57.2,154.2c-2.1-3.7-3-9.3,3.2-13.4c2.3-1.5,5.2-0.1,5.7,3.6"/>
<path class="st1" d="M107.8,135.6c0,0-9.1-4.4-4.2-6.5c1.1-0.5,2.1-0.6,2.9-0.6"/>
<path class="st1" d="M90.7,194.3c0,0,3,12,7.6,9.6s-4.9-6.4-3.1-11.7"/>
<path class="st0" d="M86.6,192.6c0,0,0.2,10.4-6.1,8.5s-8.5-8.9-5.9-13.7c2.7-4.8,8.3-5.3,10.1-1.8s1.2,5,1.2,5"/>
<path class="st1" d="M84,3.3c0,0-6,3.9-4.1-2.1c1.9-6-8.5-0.8-5.9,7s5.2,7.9,6.5,3.8c1.3-4.1,2.6,0.1,4-1.3c1.5-1.5-1.8-3.5,0.4-3.8
	c2.2-0.3,2.1,0.1,2.1,0.1"/>
<path class="st1" d="M71.6,158.9c0,0-3.6,1.7-0.9,8.4c2.7,6.7,7.5,6.5,5.8,1.8c-1.7-4.7-3.1-7.1-1.3-7.7"/>
<path class="st1" d="M97.7,173.4c0,0-2.9-1.3-3.1,0.6c-0.2,1.9,4.1,5.6,0.7,5.8s-10.7-2.8-8.2-12.3c0.7-2.6,3.4-3.7,5.7-1.2
	c2.3,2.4,4.7-3.6,5.3,3"/>
<path class="st1" d="M71.3,190.2c0,0-2.9-1.3-3.1,0.6c-0.2,1.9,4.1,5.6,0.7,5.8s-10.7-2.8-8.2-12.3c0.7-2.6,3.4-3.7,5.7-1.2
	c2.3,2.4,4.7-3.6,5.3,3"/>
<path class="st0" d="M94.5,150.5c0,0-4.5,10.1-12,7.4c-7.5-2.7-7.9-19.2-0.2-21.9c7.6-2.7,11.8-1.3,12.7,10.6"/>
<path class="st1" d="M89.1,132.6c0,0-2.4-9.3,1.7-7.6s2.4,5.9,3.2,6.3s-0.3,2.7-0.3,2.7"/>
<path class="st1" d="M49.5,188.3c0,0-2.4-9.3,1.7-7.6c4.1,1.7,2.4,5.9,3.2,6.3c0.8,0.4-0.3,2.7-0.3,2.7"/>
<path class="st1" d="M187.5,36c0,0,6.7-4,5,2.1c-1.7,6.1,10.1,0.8,6.3-7.1c-3.7-7.8-6.8-8-7.9-3.8s-3-0.1-4.6,1.4
	c-1.6,1.5,2.4,3.6-0.1,3.8c-2.5,0.3-2.5-0.1-2.5-0.1"/>
<path class="st1" d="M182.3,10c0,0,3.5,1.3,3.6-0.6s-5.3-5.6-1.3-5.8c4-0.2,12.8,2.8,10.7,12.3c-0.6,2.7-3.7,3.7-6.6,1.3
	s-5.2,3.7-6.5-2.9"/>
<path class="st1" d="M209,17.3c0,0,3.7,9.4-1.3,7.7c-5-1.7-3.3-5.9-4.3-6.3c-1-0.4,0.1-2.7,0.1-2.7"/>
<path class="st0" d="M168.1,14c0,0,7-7.8,10.7-1s0.6,13.9-4.8,15.2c-5.5,1.3-10.3-3.3-9.2-7.4s2.5-4.8,2.5-4.8"/>
<path class="st1" d="M202.4,51.1c-1.2,2.1-4.4,7.2-6.1,3.3c-0.5-1.2-0.6-2.2-0.5-3.1"/>
<path class="st1" d="M206.4,3.1c-1.2,2.1-4.4,7.2-6.1,3.3c-0.5-1.2-0.6-2.2-0.5-3.1"/>
<path class="st1" d="M164.1,2c0,0,3.7,9.4-1.3,7.7c-5-1.7-3.3-5.9-4.3-6.3c-1-0.4,0.1-2.7,0.1-2.7"/>
<path class="st1" d="M161.4,51.3c0,0,3.8-9.3,6.2-4.6s-1.7,6.6-1.3,7.5s-1.9,1.9-1.9,1.9"/>
<path class="st0" d="M205.3,191.7c0,0,3.6,10.5-4.8,14.7c-8.4,4.1-21-6.9-16.5-14.8c4.6-7.9,9.1-10.3,18.8-2.8"/>
<path class="st1" d="M163.6,204.7c0,0-9.1-4.4-4.2-6.5c4.8-2.1,6.4,2.1,7.4,1.8s1.7,2.1,1.7,2.1"/>
<path class="st1" d="M195.4,158.7c0,0,3.9-2.3,7,4.7c3.2,7-0.3,11.4-2.7,6.7c-2.4-4.7-3.2-7.6-5-6.4"/>
<path class="st1" d="M28.4,19.3c0,0,3.8-9.3,6.2-4.6s-1.7,6.6-1.3,7.5c0.4,1-1.9,1.9-1.9,1.9"/>
<path class="st1" d="M19.1,34c0,0-1.9-4.1-8.5-0.2s-6.3,9.5-1.7,7s7-4.4,7.7-2.4"/>
<path class="st0" d="M21.5,16.5c0,0-4.5,10.1-12,7.4S1.7,4.8,9.3,2.1S21.1,0.8,22,12.7"/>
<path class="st1" d="M76.8,122.7c0,0-7.6-1.8-2.1-5c5.5-3.2-6.8-7.5-9.5,0.7s-0.6,10.4,3.1,8.2c3.7-2.2,2.1,2.2,4.3,2.2
	c2.2,0,0.7-4.2,2.8-2.7c2,1.5,1.8,1.8,1.8,1.8"/>
<path class="st1" d="M18.8,170.7c0,0-7.6-1.8-2.1-5c5.5-3.2-6.8-7.5-9.5,0.7s-0.6,10.4,3.1,8.2c3.7-2.2,2.1,2.2,4.3,2.2
	c2.2,0,0.7-4.2,2.8-2.7c2,1.5,1.8,1.8,1.8,1.8"/>
<path class="st1" d="M36,203.6c0,0,7.2-3.1,1.2-5.3s5.3-8.6,9.4-0.9s2.4,10.2-1.6,8.6c-4.1-1.5-1.7,2.5-3.8,2.9
	c-2.1,0.4-1.5-4-3.2-2.1c-1.7,1.9-1.4,2.1-1.4,2.1"/>
<path class="st1" d="M62.1,201c0,0,3.7,9.4-1.3,7.7s-3.3-5.9-4.3-6.3c-1-0.4,0.1-2.7,0.1-2.7"/>
<path class="st1" d="M4.1,148.6c0,0-2.4-9.3,1.7-7.6c4.1,1.7,2.4,5.9,3.2,6.3S8.7,150,8.7,150"/>
<path class="st1" d="M115.6,5.6c0,0-4.2-1.6-6.1,5.9c-1.9,7.5,2.3,11.2,3.8,6.1c1.6-5,1.8-8.1,3.8-7.2"/>
<path class="st1" d="M38.6,28.7C38.3,24.7,42.4,18,52,20c2.7,0.6,3.8,3.6,1.4,6.6"/>
<path class="st1" d="M140.8,6.7c0,0-7.6-1.8-2.1-5s-6.8-7.5-9.5,0.7c-2.7,8.3-0.6,10.4,3.1,8.2s2.1,2.2,4.3,2.2
	c2.2,0,0.7-4.2,2.8-2.7s1.8,1.8,1.8,1.8"/>
<path class="st1" d="M44,10c0,0,1-3.6,2.6-2.5c1.6,1.1,1.4,7.6,3.9,4.5c2.6-3.1,5.3-12-3.7-15.9c-2.5-1.1-5.2,0.8-4.9,4.6
	c0.2,3.8-6,2-1.4,6.9"/>
</svg>
